<?xml version="1.0" encoding="UTF-8" standalone="no"?>
<!-- Created with Inkscape (http://www.inkscape.org/) -->

<svg
   width="1024"
   height="420"
   viewBox="0 0 270.93334 111.12501"
   version="1.1"
   id="svg1"
   xml:space="preserve"
   inkscape:version="1.4 (86a8ad7, 2024-10-11)"
   sodipodi:docname="banner.svg"
   inkscape:export-filename="banner.png"
   inkscape:export-xdpi="96"
   inkscape:export-ydpi="96"
   xmlns:inkscape="http://www.inkscape.org/namespaces/inkscape"
   xmlns:sodipodi="http://sodipodi.sourceforge.net/DTD/sodipodi-0.dtd"
   xmlns:xlink="http://www.w3.org/1999/xlink"
   xmlns="http://www.w3.org/2000/svg"
   xmlns:svg="http://www.w3.org/2000/svg"><sodipodi:namedview
     id="namedview1"
     pagecolor="#505050"
     bordercolor="#eeeeee"
     borderopacity="1"
     inkscape:showpageshadow="0"
     inkscape:pageopacity="0"
     inkscape:pagecheckerboard="0"
     inkscape:deskcolor="#505050"
     inkscape:document-units="mm"
     inkscape:zoom="0.73851712"
     inkscape:cx="479.33892"
     inkscape:cy="195.66236"
     inkscape:window-width="1920"
     inkscape:window-height="1009"
     inkscape:window-x="1912"
     inkscape:window-y="-8"
     inkscape:window-maximized="1"
     inkscape:current-layer="layer1" /><defs
     id="defs1"><linearGradient
       inkscape:collect="always"
       xlink:href="#linearGradient5"
       id="linearGradient106"
       gradientUnits="userSpaceOnUse"
       gradientTransform="matrix(0.76189262,0,0,0.76189262,-406.5685,25.529176)"
       x1="199.50935"
       y1="123.30174"
       x2="199.50935"
       y2="388.69836" /><linearGradient
       id="linearGradient5"
       inkscape:collect="always"><stop
         style="stop-color:#b4e0ff;stop-opacity:1;"
         offset="0"
         id="stop5" /><stop
         style="stop-color:#3b88c3;stop-opacity:1;"
         offset="1"
         id="stop6" /></linearGradient><linearGradient
       inkscape:collect="always"
       xlink:href="#linearGradient7"
       id="linearGradient107"
       gradientUnits="userSpaceOnUse"
       gradientTransform="translate(-462.69037,-9.574667)"
       x1="179.56367"
       y1="340.77386"
       x2="179.56367"
       y2="119.5228" /><linearGradient
       id="linearGradient7"
       inkscape:collect="always"><stop
         style="stop-color:#226699;stop-opacity:1;"
         offset="0"
         id="stop7" /><stop
         style="stop-color:#ccd6dd;stop-opacity:1;"
         offset="1"
         id="stop8" /></linearGradient><linearGradient
       inkscape:collect="always"
       xlink:href="#linearGradient14"
       id="linearGradient108"
       gradientUnits="userSpaceOnUse"
       gradientTransform="matrix(0.798352,0,0,1.0250934,50.185675,-7.61977)"
       x1="239.48616"
       y1="270.36203"
       x2="272.51346"
       y2="270.36203"
       spreadMethod="repeat" /><linearGradient
       id="linearGradient14"
       inkscape:collect="always"><stop
         style="stop-color:#ffffff;stop-opacity:1;"
         offset="0.28961089"
         id="stop19" /><stop
         style="stop-color:#ccd6dd;stop-opacity:1;"
         offset="0.29961088"
         id="stop17" /><stop
         style="stop-color:#ccd6dd;stop-opacity:1;"
         offset="0.5"
         id="stop16" /><stop
         style="stop-color:#ccd6dd;stop-opacity:1;"
         offset="0.69999999"
         id="stop18" /><stop
         style="stop-color:#ffffff;stop-opacity:1;"
         offset="0.70999998"
         id="stop20" /></linearGradient><linearGradient
       inkscape:collect="always"
       xlink:href="#linearGradient34"
       id="linearGradient109"
       gradientUnits="userSpaceOnUse"
       gradientTransform="matrix(0.87369377,0,0,0.87369377,56.404926,7.543411)"
       x1="226.80585"
       y1="60.937061"
       x2="226.80585"
       y2="119.15361" /><linearGradient
       id="linearGradient34"
       inkscape:collect="always"><stop
         style="stop-color:#ffe999;stop-opacity:1;"
         offset="0"
         id="stop34" /><stop
         style="stop-color:#f4900c;stop-opacity:1;"
         offset="1"
         id="stop35" /></linearGradient><filter
       inkscape:collect="always"
       style="color-interpolation-filters:sRGB"
       id="filter50"
       x="-0.69438011"
       y="-0.19133142"
       width="2.3887602"
       height="1.3826628"><feGaussianBlur
         inkscape:collect="always"
         stdDeviation="5.0813064"
         id="feGaussianBlur50" /></filter><inkscape:path-effect
       effect="fillet_chamfer"
       id="path-effect98"
       is_visible="true"
       lpeversion="1"
       nodesatellites_param="F,0,0,1,0,0,0,1 @ F,0,1,1,0,17.693809,0,1 @ F,0,0,1,0,17.693809,0,1 @ F,0,0,1,0,0,0,1"
       radius="0"
       unit="px"
       method="auto"
       mode="F"
       chamfer_steps="1"
       flexible="false"
       use_knot_distance="true"
       apply_no_radius="true"
       apply_with_radius="true"
       only_selected="false"
       hide_knots="false" /><linearGradient
       inkscape:collect="always"
       xlink:href="#linearGradient37"
       id="linearGradient110"
       gradientUnits="userSpaceOnUse"
       x1="-166.03137"
       y1="256"
       x2="-141.96875"
       y2="256" /><linearGradient
       id="linearGradient37"
       inkscape:collect="always"><stop
         style="stop-color:#226699;stop-opacity:1;"
         offset="0"
         id="stop36" /><stop
         style="stop-color:#55acee;stop-opacity:1;"
         offset="1"
         id="stop37" /></linearGradient><linearGradient
       inkscape:collect="always"
       xlink:href="#linearGradient39"
       id="linearGradient111"
       gradientUnits="userSpaceOnUse"
       gradientTransform="matrix(0.79748267,0,0,0.59995546,-461.63763,102.41138)"
       x1="396.57687"
       y1="263.70465"
       x2="374.74969"
       y2="263.70465" /><linearGradient
       id="linearGradient39"
       inkscape:collect="always"><stop
         style="stop-color:#55acee;stop-opacity:1;"
         offset="0"
         id="stop38" /><stop
         style="stop-color:#226699;stop-opacity:1;"
         offset="1"
         id="stop39" /></linearGradient><inkscape:path-effect
       effect="fillet_chamfer"
       id="path-effect101"
       is_visible="true"
       lpeversion="1"
       nodesatellites_param="F,0,0,1,0,0,0,1 @ F,0,1,1,0,17.693809,0,1 @ F,0,0,1,0,17.693809,0,1 @ F,0,0,1,0,0,0,1 @ F,0,0,1,0,0,0,1"
       radius="0"
       unit="px"
       method="auto"
       mode="F"
       chamfer_steps="1"
       flexible="false"
       use_knot_distance="true"
       apply_no_radius="true"
       apply_with_radius="true"
       only_selected="false"
       hide_knots="false" /><radialGradient
       inkscape:collect="always"
       xlink:href="#linearGradient57"
       id="radialGradient111"
       gradientUnits="userSpaceOnUse"
       gradientTransform="matrix(2.1986768,0,0,2.8672398,-698.77193,-492.63685)"
       cx="377.63644"
       cy="243.446"
       fx="377.63644"
       fy="243.446"
       r="11.010886"
       spreadMethod="pad" /><linearGradient
       id="linearGradient57"
       inkscape:collect="always"><stop
         style="stop-color:#ff6368;stop-opacity:1;"
         offset="0"
         id="stop56" /><stop
         style="stop-color:#a82e44;stop-opacity:1;"
         offset="1"
         id="stop57" /></linearGradient><linearGradient
       inkscape:collect="always"
       xlink:href="#linearGradient57"
       id="linearGradient112"
       gradientUnits="userSpaceOnUse"
       gradientTransform="matrix(0.76376783,0,0,0.77772214,-163.10323,21.290846)"
       x1="385.76083"
       y1="203.52922"
       x2="385.76083"
       y2="308.47076" /><radialGradient
       inkscape:collect="always"
       xlink:href="#linearGradient57"
       id="radialGradient112"
       gradientUnits="userSpaceOnUse"
       gradientTransform="matrix(2.1986768,0,0,2.8672398,-452.70174,-492.63685)"
       cx="377.63644"
       cy="243.446"
       fx="377.63644"
       fy="243.446"
       r="11.010886"
       spreadMethod="pad" /><linearGradient
       inkscape:collect="always"
       xlink:href="#linearGradient57"
       id="linearGradient113"
       gradientUnits="userSpaceOnUse"
       gradientTransform="matrix(0.76376783,0,0,0.77772214,82.96696,21.290851)"
       x1="385.76083"
       y1="203.52922"
       x2="385.76083"
       y2="308.47076" /><filter
       style="color-interpolation-filters:sRGB"
       inkscape:label="Color Shift"
       id="filter188"
       x="-0.015215573"
       y="-0.019165029"
       width="1.0304311"
       height="1.0556692"><feColorMatrix
         type="hueRotate"
         values="310"
         result="color1"
         id="feColorMatrix187" /><feColorMatrix
         type="saturate"
         values="1"
         result="color2"
         id="feColorMatrix188" /></filter><inkscape:path-effect
       effect="fillet_chamfer"
       id="path-effect104"
       is_visible="true"
       lpeversion="1"
       nodesatellites_param="F,0,0,1,0,0,0,1 @ F,0,1,1,0,17.693809,0,1 @ F,0,0,1,0,17.693809,0,1 @ F,0,0,1,0,0,0,1"
       radius="0"
       unit="px"
       method="auto"
       mode="F"
       chamfer_steps="1"
       flexible="false"
       use_knot_distance="true"
       apply_no_radius="true"
       apply_with_radius="true"
       only_selected="false"
       hide_knots="false" /><inkscape:path-effect
       effect="fillet_chamfer"
       id="path-effect106"
       is_visible="true"
       lpeversion="1"
       nodesatellites_param="F,0,0,1,0,0,0,1 @ F,0,1,1,0,17.693809,0,1 @ F,0,0,1,0,17.693809,0,1 @ F,0,0,1,0,0,0,1 @ F,0,0,1,0,0,0,1"
       radius="0"
       unit="px"
       method="auto"
       mode="F"
       chamfer_steps="1"
       flexible="false"
       use_knot_distance="true"
       apply_no_radius="true"
       apply_with_radius="true"
       only_selected="false"
       hide_knots="false" /><radialGradient
       inkscape:collect="always"
       xlink:href="#linearGradient57"
       id="radialGradient119"
       gradientUnits="userSpaceOnUse"
       gradientTransform="matrix(2.1986768,0,0,2.8672398,-698.77193,-492.63685)"
       cx="377.63644"
       cy="243.446"
       fx="377.63644"
       fy="243.446"
       r="11.010886"
       spreadMethod="pad" /><radialGradient
       inkscape:collect="always"
       xlink:href="#linearGradient57"
       id="radialGradient120"
       gradientUnits="userSpaceOnUse"
       gradientTransform="matrix(2.1986768,0,0,2.8672398,-452.70174,-492.63685)"
       cx="377.63644"
       cy="243.446"
       fx="377.63644"
       fy="243.446"
       r="11.010886"
       spreadMethod="pad" /><linearGradient
       inkscape:collect="always"
       xlink:href="#linearGradient5"
       id="linearGradient1"
       gradientUnits="userSpaceOnUse"
       gradientTransform="matrix(0.76189262,0,0,0.76189262,-406.5685,25.529176)"
       x1="199.50935"
       y1="123.30174"
       x2="199.50935"
       y2="388.69836" /><linearGradient
       inkscape:collect="always"
       xlink:href="#linearGradient7"
       id="linearGradient2"
       gradientUnits="userSpaceOnUse"
       gradientTransform="translate(-462.69037,-9.574667)"
       x1="179.56367"
       y1="340.77386"
       x2="179.56367"
       y2="119.5228" /><linearGradient
       inkscape:collect="always"
       xlink:href="#linearGradient14"
       id="linearGradient3"
       gradientUnits="userSpaceOnUse"
       gradientTransform="matrix(0.798352,0,0,1.0250934,50.185675,-7.61977)"
       x1="239.48616"
       y1="270.36203"
       x2="272.51346"
       y2="270.36203"
       spreadMethod="repeat" /><linearGradient
       inkscape:collect="always"
       xlink:href="#linearGradient34"
       id="linearGradient4"
       gradientUnits="userSpaceOnUse"
       gradientTransform="matrix(0.87369377,0,0,0.87369377,56.404926,7.543411)"
       x1="226.80585"
       y1="60.937061"
       x2="226.80585"
       y2="119.15361" /><linearGradient
       inkscape:collect="always"
       xlink:href="#linearGradient37"
       id="linearGradient6"
       gradientUnits="userSpaceOnUse"
       x1="-166.03137"
       y1="256"
       x2="-141.96875"
       y2="256" /><linearGradient
       inkscape:collect="always"
       xlink:href="#linearGradient39"
       id="linearGradient8"
       gradientUnits="userSpaceOnUse"
       gradientTransform="matrix(0.79748267,0,0,0.59995546,-461.63763,102.41138)"
       x1="396.57687"
       y1="263.70465"
       x2="374.74969"
       y2="263.70465" /><linearGradient
       inkscape:collect="always"
       xlink:href="#linearGradient57"
       id="linearGradient9"
       gradientUnits="userSpaceOnUse"
       gradientTransform="matrix(0.76376783,0,0,0.77772214,-163.10323,21.290846)"
       x1="385.76083"
       y1="203.52922"
       x2="385.76083"
       y2="308.47076" /><linearGradient
       inkscape:collect="always"
       xlink:href="#linearGradient57"
       id="linearGradient10"
       gradientUnits="userSpaceOnUse"
       gradientTransform="matrix(0.76376783,0,0,0.77772214,82.96696,21.290851)"
       x1="385.76083"
       y1="203.52922"
       x2="385.76083"
       y2="308.47076" /></defs><g
     inkscape:label="Layer 1"
     inkscape:groupmode="layer"
     id="layer1"
     transform="translate(-24.981326,-23.756759)"><g
       id="g97"
       transform="matrix(0.1831739,0,0,0.1831739,160.96061,78.421057)"><g
         id="g81"
         transform="matrix(1.0800335,0,0,1.0800335,-778.55941,-290.0737)"><rect
           style="fill:url(#linearGradient1);stroke:url(#linearGradient2);stroke-width:19.0473;stroke-linecap:round;stroke-linejoin:round;paint-order:stroke markers fill"
           id="rect66"
           width="202.20378"
           height="202.20378"
           x="-355.66568"
           y="119.47177"
           rx="44.502483"
           ry="44.502483"
           transform="scale(-1,1)" /><rect
           style="fill:none;fill-opacity:1;stroke:#65a7d8;stroke-width:15;stroke-linecap:round;stroke-linejoin:round;stroke-dasharray:none;stroke-opacity:1;paint-order:stroke markers fill"
           id="rect67"
           width="114.65952"
           height="29.444834"
           x="197.23402"
           y="254.80414"
           rx="14.722417"
           ry="14.722417" /><rect
           style="fill:url(#linearGradient3);fill-opacity:1;stroke:#ccd6dd;stroke-width:6.83828;stroke-linecap:round;stroke-linejoin:round;stroke-dasharray:none;stroke-opacity:1;paint-order:stroke markers fill"
           id="rect68"
           width="114.65952"
           height="29.444834"
           x="197.23402"
           y="254.80414"
           rx="14.722417"
           ry="14.722417" /><g
           id="g78"
           transform="translate(-1.4361992,-35.426329)"><rect
             style="fill:none;fill-opacity:1;stroke:#9dcff3;stroke-width:6.5;stroke-linecap:round;stroke-linejoin:round;stroke-dasharray:none;stroke-opacity:1;paint-order:stroke fill markers"
             id="rect69"
             width="65.298218"
             height="65.298973"
             x="176.52644"
             y="195.6911"
             ry="32.649109"
             rx="32.649109" /><g
             id="g72"
             transform="matrix(0.4630398,0,0,0.4630398,17.110963,197.91524)"><path
               id="path69"
               style="fill:#286a9b;fill-opacity:1;stroke:#356fb1;stroke-width:9.60667;stroke-linecap:round;stroke-linejoin:round;stroke-dasharray:none;stroke-opacity:1;paint-order:stroke fill markers"
               d="m 349.08363,65.707851 c 0,36.400859 29.307,65.707849 65.70785,65.707849 36.40082,0 65.70623,-29.30699 65.70623,-65.707849 h -10.76327 c 0,30.438045 -24.50493,54.944579 -54.94296,54.944579 -30.43804,0 -54.94457,-24.506534 -54.94457,-54.944579 z" /><path
               id="path70"
               style="fill:#418cc6;fill-opacity:1;stroke:#356fb1;stroke-width:9.60667;stroke-linecap:round;stroke-linejoin:round;stroke-dasharray:none;stroke-opacity:1;paint-order:stroke fill markers"
               d="m 414.79148,0 c -36.40085,0 -65.70785,29.307007 -65.70785,65.707851 h 10.76328 c 0,-30.438039 24.50653,-54.944576 54.94457,-54.944576 30.43803,0 54.94296,24.506537 54.94296,54.944576 h 10.76327 C 480.49771,29.307007 451.1923,0 414.79148,0 Z" /><path
               id="path71"
               style="fill:#ffffff;fill-opacity:1;stroke:none;stroke-width:7.55906;stroke-linecap:round;stroke-linejoin:round;stroke-dasharray:none;stroke-opacity:1;paint-order:stroke markers fill"
               d="m 414.79169,14.002662 c -28.64363,0 -51.70508,23.061452 -51.70508,51.705078 h 103.4082 c 0,-28.643626 -23.0595,-51.705078 -51.70312,-51.705078 z" /><path
               id="path72"
               style="fill:#ccd6dd;fill-opacity:1;stroke:none;stroke-width:7.55906;stroke-linecap:round;stroke-linejoin:round;stroke-dasharray:none;stroke-opacity:1;paint-order:stroke markers fill"
               d="m 414.79169,117.41282 c -28.64363,0 -51.70508,-23.061444 -51.70508,-51.70508 h 103.4082 c 0,28.643636 -23.0595,51.70508 -51.70312,51.70508 z" /></g><g
             id="g77"><rect
               style="fill:none;fill-opacity:1;stroke:#9dcff3;stroke-width:6.5;stroke-linecap:round;stroke-linejoin:round;stroke-dasharray:none;stroke-opacity:1;paint-order:stroke fill markers"
               id="rect72"
               width="65.298218"
               height="65.298973"
               x="270.17532"
               y="195.6911"
               ry="32.649109"
               rx="32.649109" /><g
               id="g76"
               transform="matrix(-0.4630398,0,0,0.4630398,494.88903,197.91524)"><path
                 id="path73"
                 style="fill:#286a9b;fill-opacity:1;stroke:#356fb1;stroke-width:9.60667;stroke-linecap:round;stroke-linejoin:round;stroke-dasharray:none;stroke-opacity:1;paint-order:stroke fill markers"
                 d="m 349.08363,65.707851 c 0,36.400859 29.307,65.707849 65.70785,65.707849 36.40082,0 65.70623,-29.30699 65.70623,-65.707849 h -10.76327 c 0,30.438045 -24.50493,54.944579 -54.94296,54.944579 -30.43804,0 -54.94457,-24.506534 -54.94457,-54.944579 z" /><path
                 id="path74"
                 style="fill:#418cc6;fill-opacity:1;stroke:#356fb1;stroke-width:9.60667;stroke-linecap:round;stroke-linejoin:round;stroke-dasharray:none;stroke-opacity:1;paint-order:stroke fill markers"
                 d="m 414.79148,0 c -36.40085,0 -65.70785,29.307007 -65.70785,65.707851 h 10.76328 c 0,-30.438039 24.50653,-54.944576 54.94457,-54.944576 30.43803,0 54.94296,24.506537 54.94296,54.944576 h 10.76327 C 480.49771,29.307007 451.1923,0 414.79148,0 Z" /><path
                 id="path75"
                 style="fill:#ffffff;fill-opacity:1;stroke:none;stroke-width:7.55906;stroke-linecap:round;stroke-linejoin:round;stroke-dasharray:none;stroke-opacity:1;paint-order:stroke markers fill"
                 d="m 414.79169,14.002662 c -28.64363,0 -51.70508,23.061452 -51.70508,51.705078 h 103.4082 c 0,-28.643626 -23.0595,-51.705078 -51.70312,-51.705078 z" /><path
                 id="path76"
                 style="fill:#ccd6dd;fill-opacity:1;stroke:none;stroke-width:7.55906;stroke-linecap:round;stroke-linejoin:round;stroke-dasharray:none;stroke-opacity:1;paint-order:stroke markers fill"
                 d="m 414.79169,117.41282 c -28.64363,0 -51.70508,-23.061444 -51.70508,-51.70508 h 103.4082 c 0,28.643636 -23.0595,51.70508 -51.70312,51.70508 z" /></g></g></g><rect
           style="fill:url(#linearGradient4);stroke:#f4900c;stroke-width:10;stroke-linecap:round;stroke-linejoin:round;stroke-dasharray:none;stroke-opacity:1;paint-order:stroke fill markers"
           id="rect78"
           width="50.870632"
           height="50.863476"
           x="229.12846"
           y="60.783699"
           ry="25.431738"
           rx="25.431738" /><path
           id="path78"
           style="opacity:0.5;fill:#000000;fill-opacity:1;stroke:none;stroke-width:6.5;stroke-linecap:round;stroke-linejoin:round;stroke-dasharray:none;stroke-opacity:1;paint-order:stroke markers fill;filter:url(#filter50)"
           d="m -145.21875,224.13086 a 17.628277,17.628277 134.78661 0 0 -17.5625,17.69381 v 28.35066 a 17.628277,17.628277 45.213392 0 0 17.5625,17.69381 z"
           transform="rotate(-90,-16.431264,-14.995065)"
           inkscape:path-effect="#path-effect98"
           inkscape:original-d="m -145.21875,224.13086 h -17.5625 v 63.73828 h 17.5625 z"
           sodipodi:nodetypes="ccccc" /><path
           id="path79"
           style="fill:url(#linearGradient6);stroke:url(#linearGradient8);stroke-width:6.5;stroke-linecap:round;stroke-linejoin:round;stroke-dasharray:none;stroke-opacity:1;paint-order:stroke markers fill"
           d="m -145.21875,224.13086 a 17.628277,17.628277 134.78661 0 0 -17.5625,17.69381 v 28.35066 a 17.628277,17.628277 45.213392 0 0 17.5625,17.69381 v -35.33606 z"
           transform="rotate(-90,-18.431264,-16.995065)"
           inkscape:path-effect="#path-effect101"
           inkscape:original-d="m -145.21875,224.13086 h -17.5625 v 63.73828 h 17.5625 v -35.33606 z"
           sodipodi:nodetypes="cccccc" /><path
           id="path80"
           style="fill:url(#radialGradient111);stroke:url(#linearGradient9);stroke-width:8;stroke-linecap:round;stroke-linejoin:round;stroke-dasharray:none;stroke-opacity:1;paint-order:stroke markers fill"
           d="m 131.5293,132.57031 c -3.34547,0 -6.03907,2.6936 -6.03907,6.03907 0,2.99051 2.15178,5.45693 4.99805,5.94726 v 34.51953 h -2.83984 c -2.50946,0 -4.5293,2.01985 -4.5293,4.5293 v 73.56445 c 0,2.50946 2.01984,4.5293 4.5293,4.5293 h 7.75976 c 2.50946,0 4.5293,-2.01984 4.5293,-4.5293 v -73.56445 c 0,-2.50945 -2.01984,-4.5293 -4.5293,-4.5293 h -2.83984 v -34.51953 c 2.84627,-0.49033 4.99805,-2.95675 4.99805,-5.94726 0,-3.34547 -2.69165,-6.03907 -6.03711,-6.03907 z" /><path
           id="path81"
           style="fill:url(#radialGradient112);stroke:url(#linearGradient10);stroke-width:8;stroke-linecap:round;stroke-linejoin:round;stroke-dasharray:none;stroke-opacity:1;paint-order:stroke markers fill"
           d="m 377.59949,132.57031 c -3.34547,0 -6.03907,2.6936 -6.03907,6.03907 0,2.99051 2.15178,5.45693 4.99805,5.94726 v 34.51953 h -2.83984 c -2.50946,0 -4.5293,2.01985 -4.5293,4.5293 v 73.56445 c 0,2.50946 2.01984,4.5293 4.5293,4.5293 h 7.75976 c 2.50946,0 4.5293,-2.01984 4.5293,-4.5293 v -73.56445 c 0,-2.50945 -2.01984,-4.5293 -4.5293,-4.5293 h -2.83984 v -34.51953 c 2.84627,-0.49033 4.99805,-2.95675 4.99805,-5.94726 0,-3.34547 -2.69165,-6.03907 -6.03711,-6.03907 z" /></g><g
         id="g96"
         transform="matrix(1.0800335,0,0,1.0800335,-590.55941,-118.07369)"
         style="filter:url(#filter188)"><rect
           style="fill:url(#linearGradient106);stroke:url(#linearGradient107);stroke-width:19.0473;stroke-linecap:round;stroke-linejoin:round;paint-order:stroke markers fill"
           id="rect81"
           width="202.20378"
           height="202.20378"
           x="-355.66568"
           y="119.47177"
           rx="44.502483"
           ry="44.502483"
           transform="scale(-1,1)" /><rect
           style="fill:none;fill-opacity:1;stroke:#65a7d8;stroke-width:15;stroke-linecap:round;stroke-linejoin:round;stroke-dasharray:none;stroke-opacity:1;paint-order:stroke markers fill"
           id="rect82"
           width="114.65952"
           height="29.444834"
           x="197.23402"
           y="254.80414"
           rx="14.722417"
           ry="14.722417" /><rect
           style="fill:url(#linearGradient108);fill-opacity:1;stroke:#ccd6dd;stroke-width:6.83828;stroke-linecap:round;stroke-linejoin:round;stroke-dasharray:none;stroke-opacity:1;paint-order:stroke markers fill"
           id="rect83"
           width="114.65952"
           height="29.444834"
           x="197.23402"
           y="254.80414"
           rx="14.722417"
           ry="14.722417" /><g
           id="g93"
           transform="translate(-1.4361992,-35.426329)"><rect
             style="fill:none;fill-opacity:1;stroke:#9dcff3;stroke-width:6.5;stroke-linecap:round;stroke-linejoin:round;stroke-dasharray:none;stroke-opacity:1;paint-order:stroke fill markers"
             id="rect84"
             width="65.298218"
             height="65.298973"
             x="176.52644"
             y="195.6911"
             ry="32.649109"
             rx="32.649109" /><g
             id="g87"
             transform="matrix(0.4630398,0,0,0.4630398,17.110963,197.91524)"><path
               id="path84"
               style="fill:#286a9b;fill-opacity:1;stroke:#356fb1;stroke-width:9.60667;stroke-linecap:round;stroke-linejoin:round;stroke-dasharray:none;stroke-opacity:1;paint-order:stroke fill markers"
               d="m 349.08363,65.707851 c 0,36.400859 29.307,65.707849 65.70785,65.707849 36.40082,0 65.70623,-29.30699 65.70623,-65.707849 h -10.76327 c 0,30.438045 -24.50493,54.944579 -54.94296,54.944579 -30.43804,0 -54.94457,-24.506534 -54.94457,-54.944579 z" /><path
               id="path85"
               style="fill:#418cc6;fill-opacity:1;stroke:#356fb1;stroke-width:9.60667;stroke-linecap:round;stroke-linejoin:round;stroke-dasharray:none;stroke-opacity:1;paint-order:stroke fill markers"
               d="m 414.79148,0 c -36.40085,0 -65.70785,29.307007 -65.70785,65.707851 h 10.76328 c 0,-30.438039 24.50653,-54.944576 54.94457,-54.944576 30.43803,0 54.94296,24.506537 54.94296,54.944576 h 10.76327 C 480.49771,29.307007 451.1923,0 414.79148,0 Z" /><path
               id="path86"
               style="fill:#ffffff;fill-opacity:1;stroke:none;stroke-width:7.55906;stroke-linecap:round;stroke-linejoin:round;stroke-dasharray:none;stroke-opacity:1;paint-order:stroke markers fill"
               d="m 414.79169,14.002662 c -28.64363,0 -51.70508,23.061452 -51.70508,51.705078 h 103.4082 c 0,-28.643626 -23.0595,-51.705078 -51.70312,-51.705078 z" /><path
               id="path87"
               style="fill:#ccd6dd;fill-opacity:1;stroke:none;stroke-width:7.55906;stroke-linecap:round;stroke-linejoin:round;stroke-dasharray:none;stroke-opacity:1;paint-order:stroke markers fill"
               d="m 414.79169,117.41282 c -28.64363,0 -51.70508,-23.061444 -51.70508,-51.70508 h 103.4082 c 0,28.643636 -23.0595,51.70508 -51.70312,51.70508 z" /></g><g
             id="g92"><rect
               style="fill:none;fill-opacity:1;stroke:#9dcff3;stroke-width:6.5;stroke-linecap:round;stroke-linejoin:round;stroke-dasharray:none;stroke-opacity:1;paint-order:stroke fill markers"
               id="rect87"
               width="65.298218"
               height="65.298973"
               x="270.17532"
               y="195.6911"
               ry="32.649109"
               rx="32.649109" /><g
               id="g91"
               transform="matrix(-0.4630398,0,0,0.4630398,494.88903,197.91524)"><path
                 id="path88"
                 style="fill:#286a9b;fill-opacity:1;stroke:#356fb1;stroke-width:9.60667;stroke-linecap:round;stroke-linejoin:round;stroke-dasharray:none;stroke-opacity:1;paint-order:stroke fill markers"
                 d="m 349.08363,65.707851 c 0,36.400859 29.307,65.707849 65.70785,65.707849 36.40082,0 65.70623,-29.30699 65.70623,-65.707849 h -10.76327 c 0,30.438045 -24.50493,54.944579 -54.94296,54.944579 -30.43804,0 -54.94457,-24.506534 -54.94457,-54.944579 z" /><path
                 id="path89"
                 style="fill:#418cc6;fill-opacity:1;stroke:#356fb1;stroke-width:9.60667;stroke-linecap:round;stroke-linejoin:round;stroke-dasharray:none;stroke-opacity:1;paint-order:stroke fill markers"
                 d="m 414.79148,0 c -36.40085,0 -65.70785,29.307007 -65.70785,65.707851 h 10.76328 c 0,-30.438039 24.50653,-54.944576 54.94457,-54.944576 30.43803,0 54.94296,24.506537 54.94296,54.944576 h 10.76327 C 480.49771,29.307007 451.1923,0 414.79148,0 Z" /><path
                 id="path90"
                 style="fill:#ffffff;fill-opacity:1;stroke:none;stroke-width:7.55906;stroke-linecap:round;stroke-linejoin:round;stroke-dasharray:none;stroke-opacity:1;paint-order:stroke markers fill"
                 d="m 414.79169,14.002662 c -28.64363,0 -51.70508,23.061452 -51.70508,51.705078 h 103.4082 c 0,-28.643626 -23.0595,-51.705078 -51.70312,-51.705078 z" /><path
                 id="path91"
                 style="fill:#ccd6dd;fill-opacity:1;stroke:none;stroke-width:7.55906;stroke-linecap:round;stroke-linejoin:round;stroke-dasharray:none;stroke-opacity:1;paint-order:stroke markers fill"
                 d="m 414.79169,117.41282 c -28.64363,0 -51.70508,-23.061444 -51.70508,-51.70508 h 103.4082 c 0,28.643636 -23.0595,51.70508 -51.70312,51.70508 z" /></g></g></g><rect
           style="fill:url(#linearGradient109);stroke:#f4900c;stroke-width:10;stroke-linecap:round;stroke-linejoin:round;stroke-dasharray:none;stroke-opacity:1;paint-order:stroke fill markers"
           id="rect93"
           width="50.870632"
           height="50.863476"
           x="229.12846"
           y="60.783699"
           ry="25.431738"
           rx="25.431738" /><path
           id="path93"
           style="opacity:0.5;fill:#000000;fill-opacity:1;stroke:none;stroke-width:6.5;stroke-linecap:round;stroke-linejoin:round;stroke-dasharray:none;stroke-opacity:1;paint-order:stroke markers fill;filter:url(#filter50)"
           d="m -145.21875,224.13086 a 17.628277,17.628277 134.78661 0 0 -17.5625,17.69381 v 28.35066 a 17.628277,17.628277 45.213392 0 0 17.5625,17.69381 z"
           transform="rotate(-90,-16.431264,-14.995065)"
           sodipodi:nodetypes="ccccc"
           inkscape:original-d="m -145.21875,224.13086 h -17.5625 v 63.73828 h 17.5625 z"
           inkscape:path-effect="#path-effect104" /><path
           id="path94"
           style="fill:url(#linearGradient110);stroke:url(#linearGradient111);stroke-width:6.5;stroke-linecap:round;stroke-linejoin:round;stroke-dasharray:none;stroke-opacity:1;paint-order:stroke markers fill"
           d="m -145.21875,224.13086 a 17.628277,17.628277 134.78661 0 0 -17.5625,17.69381 v 28.35066 a 17.628277,17.628277 45.213392 0 0 17.5625,17.69381 v -35.33606 z"
           transform="rotate(-90,-18.431264,-16.995065)"
           sodipodi:nodetypes="cccccc"
           inkscape:original-d="m -145.21875,224.13086 h -17.5625 v 63.73828 h 17.5625 v -35.33606 z"
           inkscape:path-effect="#path-effect106" /><path
           id="path95"
           style="fill:url(#radialGradient119);stroke:url(#linearGradient112);stroke-width:8;stroke-linecap:round;stroke-linejoin:round;stroke-dasharray:none;stroke-opacity:1;paint-order:stroke markers fill"
           d="m 131.5293,132.57031 c -3.34547,0 -6.03907,2.6936 -6.03907,6.03907 0,2.99051 2.15178,5.45693 4.99805,5.94726 v 34.51953 h -2.83984 c -2.50946,0 -4.5293,2.01985 -4.5293,4.5293 v 73.56445 c 0,2.50946 2.01984,4.5293 4.5293,4.5293 h 7.75976 c 2.50946,0 4.5293,-2.01984 4.5293,-4.5293 v -73.56445 c 0,-2.50945 -2.01984,-4.5293 -4.5293,-4.5293 h -2.83984 v -34.51953 c 2.84627,-0.49033 4.99805,-2.95675 4.99805,-5.94726 0,-3.34547 -2.69165,-6.03907 -6.03711,-6.03907 z" /><path
           id="path96"
           style="fill:url(#radialGradient120);stroke:url(#linearGradient113);stroke-width:8;stroke-linecap:round;stroke-linejoin:round;stroke-dasharray:none;stroke-opacity:1;paint-order:stroke markers fill"
           d="m 377.59949,132.57031 c -3.34547,0 -6.03907,2.6936 -6.03907,6.03907 0,2.99051 2.15178,5.45693 4.99805,5.94726 v 34.51953 h -2.83984 c -2.50946,0 -4.5293,2.01985 -4.5293,4.5293 v 73.56445 c 0,2.50946 2.01984,4.5293 4.5293,4.5293 h 7.75976 c 2.50946,0 4.5293,-2.01984 4.5293,-4.5293 v -73.56445 c 0,-2.50945 -2.01984,-4.5293 -4.5293,-4.5293 h -2.83984 v -34.51953 c 2.84627,-0.49033 4.99805,-2.95675 4.99805,-5.94726 0,-3.34547 -2.69165,-6.03907 -6.03711,-6.03907 z" /></g><path
         id="path97"
         style="opacity:1;fill:#3a9be8;fill-opacity:1;stroke:#2c6fa8;stroke-width:15;stroke-linejoin:round;stroke-dasharray:none;stroke-opacity:1;paint-order:stroke fill markers"
         d="m -524.56577,168.66943 v 28.42804 l 44.03528,-39.96383 -44.03528,-39.96382 v 28.41001 c -46.36823,0 -66.09881,-14.66711 -76.26129,-52.593999 0,40.919809 15.34724,75.493009 76.26129,75.683599 z"
         sodipodi:nodetypes="ccccccc" /></g><text
       xml:space="preserve"
       style="font-style:normal;font-variant:normal;font-weight:normal;font-stretch:normal;font-size:27.4949px;line-height:1.2;font-family:Roboto;-inkscape-font-specification:'Roboto, Normal';font-variant-ligatures:normal;font-variant-caps:normal;font-variant-numeric:normal;font-variant-east-asian:normal;text-align:justify;letter-spacing:0px;word-spacing:0px;writing-mode:lr-tb;direction:ltr;text-anchor:start;fill:#4d4d4d;fill-opacity:1;stroke-width:7.20628;stroke-linejoin:round;paint-order:stroke fill markers"
       x="143.65504"
       y="89.871414"
       id="text10"><tspan
         sodipodi:role="line"
         id="tspan10"
         x="143.65504"
         y="89.871414"
         style="fill:#4d4d4d;fill-opacity:1;stroke-width:7.20628">Robot<tspan
   style="font-weight:bold;fill:#4d4d4d;fill-opacity:1;stroke-width:7.20628"
   id="tspan11">Copy</tspan></tspan></text></g></svg>
