<?xml version="1.0" encoding="UTF-8" standalone="no"?>
<!-- Created with Inkscape (http://www.inkscape.org/) -->

<svg
   width="512"
   height="512"
   viewBox="0 0 512 512"
   version="1.1"
   id="svg1"
   xml:space="preserve"
   inkscape:version="1.4 (86a8ad7, 2024-10-11)"
   sodipodi:docname="logo.svg"
   inkscape:export-filename="qt_src\Identity\png\logo-simplified@512px.png"
   inkscape:export-xdpi="96"
   inkscape:export-ydpi="96"
   xmlns:inkscape="http://www.inkscape.org/namespaces/inkscape"
   xmlns:sodipodi="http://sodipodi.sourceforge.net/DTD/sodipodi-0.dtd"
   xmlns:xlink="http://www.w3.org/1999/xlink"
   xmlns="http://www.w3.org/2000/svg"
   xmlns:svg="http://www.w3.org/2000/svg"><sodipodi:namedview
     id="namedview1"
     pagecolor="#505050"
     bordercolor="#eeeeee"
     borderopacity="1"
     inkscape:showpageshadow="0"
     inkscape:pageopacity="0"
     inkscape:pagecheckerboard="false"
     inkscape:deskcolor="#505050"
     inkscape:document-units="px"
     showgrid="true"
     inkscape:zoom="0.7385171"
     inkscape:cx="411.63569"
     inkscape:cy="329.71478"
     inkscape:window-width="1920"
     inkscape:window-height="1009"
     inkscape:window-x="1912"
     inkscape:window-y="-8"
     inkscape:window-maximized="1"
     inkscape:current-layer="layer1"><inkscape:grid
       id="grid4"
       units="px"
       originx="0"
       originy="0"
       spacingx="256"
       spacingy="256"
       empcolor="#0099e5"
       empopacity="0.30196078"
       color="#0099e5"
       opacity="0.14901961"
       empspacing="2"
       enabled="true"
       visible="true" /></sodipodi:namedview><defs
     id="defs1"><inkscape:path-effect
       effect="fillet_chamfer"
       id="path-effect42"
       is_visible="true"
       lpeversion="1"
       nodesatellites_param="F,0,0,1,0,0,0,1 @ F,0,1,1,0,17.693809,0,1 @ F,0,0,1,0,17.693809,0,1 @ F,0,0,1,0,0,0,1 @ F,0,0,1,0,0,0,1"
       radius="0"
       unit="px"
       method="auto"
       mode="F"
       chamfer_steps="1"
       flexible="false"
       use_knot_distance="true"
       apply_no_radius="true"
       apply_with_radius="true"
       only_selected="false"
       hide_knots="false" /><inkscape:path-effect
       effect="fillet_chamfer"
       id="path-effect40"
       is_visible="true"
       lpeversion="1"
       nodesatellites_param="F,0,0,1,0,0,0,1 @ F,0,1,1,0,17.693809,0,1 @ F,0,0,1,0,17.693809,0,1 @ F,0,0,1,0,0,0,1"
       radius="0"
       unit="px"
       method="auto"
       mode="F"
       chamfer_steps="1"
       flexible="false"
       use_knot_distance="true"
       apply_no_radius="true"
       apply_with_radius="true"
       only_selected="false"
       hide_knots="false" /><inkscape:path-effect
       effect="fillet_chamfer"
       id="path-effect38"
       is_visible="true"
       lpeversion="1"
       nodesatellites_param="F,0,0,1,0,0,0,1 @ F,0,1,1,0,17.693809,0,1 @ F,0,0,1,0,17.693809,0,1 @ F,0,0,1,0,0,0,1 @ F,0,0,1,0,0,0,1"
       radius="0"
       unit="px"
       method="auto"
       mode="F"
       chamfer_steps="1"
       flexible="false"
       use_knot_distance="true"
       apply_no_radius="true"
       apply_with_radius="true"
       only_selected="false"
       hide_knots="false" /><inkscape:path-effect
       effect="fillet_chamfer"
       id="path-effect35"
       is_visible="true"
       lpeversion="1"
       nodesatellites_param="F,0,0,1,0,0,0,1 @ F,0,1,1,0,17.693809,0,1 @ F,0,0,1,0,17.693809,0,1 @ F,0,0,1,0,0,0,1"
       radius="0"
       unit="px"
       method="auto"
       mode="F"
       chamfer_steps="1"
       flexible="false"
       use_knot_distance="true"
       apply_no_radius="true"
       apply_with_radius="true"
       only_selected="false"
       hide_knots="false" /><inkscape:path-effect
       effect="fillet_chamfer"
       id="path-effect128"
       is_visible="true"
       lpeversion="1"
       nodesatellites_param="F,0,0,1,0,0,0,1 @ F,0,1,1,0,17.693809,0,1 @ F,0,0,1,0,17.693809,0,1 @ F,0,0,1,0,0,0,1 @ F,0,0,1,0,0,0,1"
       radius="0"
       unit="px"
       method="auto"
       mode="F"
       chamfer_steps="1"
       flexible="false"
       use_knot_distance="true"
       apply_no_radius="true"
       apply_with_radius="true"
       only_selected="false"
       hide_knots="false" /><inkscape:path-effect
       effect="fillet_chamfer"
       id="path-effect126"
       is_visible="true"
       lpeversion="1"
       nodesatellites_param="F,0,0,1,0,0,0,1 @ F,0,1,1,0,17.693809,0,1 @ F,0,0,1,0,17.693809,0,1 @ F,0,0,1,0,0,0,1"
       radius="0"
       unit="px"
       method="auto"
       mode="F"
       chamfer_steps="1"
       flexible="false"
       use_knot_distance="true"
       apply_no_radius="true"
       apply_with_radius="true"
       only_selected="false"
       hide_knots="false" /><inkscape:path-effect
       effect="fillet_chamfer"
       id="path-effect102"
       is_visible="true"
       lpeversion="1"
       nodesatellites_param="F,0,0,1,0,0,0,1 @ F,0,1,1,0,17.693809,0,1 @ F,0,0,1,0,17.693809,0,1 @ F,0,0,1,0,0,0,1 @ F,0,0,1,0,0,0,1"
       radius="0"
       unit="px"
       method="auto"
       mode="F"
       chamfer_steps="1"
       flexible="false"
       use_knot_distance="true"
       apply_no_radius="true"
       apply_with_radius="true"
       only_selected="false"
       hide_knots="false" /><inkscape:path-effect
       effect="fillet_chamfer"
       id="path-effect100"
       is_visible="true"
       lpeversion="1"
       nodesatellites_param="F,0,0,1,0,0,0,1 @ F,0,1,1,0,17.693809,0,1 @ F,0,0,1,0,17.693809,0,1 @ F,0,0,1,0,0,0,1"
       radius="0"
       unit="px"
       method="auto"
       mode="F"
       chamfer_steps="1"
       flexible="false"
       use_knot_distance="true"
       apply_no_radius="true"
       apply_with_radius="true"
       only_selected="false"
       hide_knots="false" /><inkscape:path-effect
       effect="fillet_chamfer"
       id="path-effect76"
       is_visible="true"
       lpeversion="1"
       nodesatellites_param="F,0,0,1,0,0,0,1 @ F,0,1,1,0,17.693809,0,1 @ F,0,0,1,0,17.693809,0,1 @ F,0,0,1,0,0,0,1 @ F,0,0,1,0,0,0,1"
       radius="0"
       unit="px"
       method="auto"
       mode="F"
       chamfer_steps="1"
       flexible="false"
       use_knot_distance="true"
       apply_no_radius="true"
       apply_with_radius="true"
       only_selected="false"
       hide_knots="false" /><inkscape:path-effect
       effect="fillet_chamfer"
       id="path-effect74"
       is_visible="true"
       lpeversion="1"
       nodesatellites_param="F,0,0,1,0,0,0,1 @ F,0,1,1,0,17.693809,0,1 @ F,0,0,1,0,17.693809,0,1 @ F,0,0,1,0,0,0,1"
       radius="0"
       unit="px"
       method="auto"
       mode="F"
       chamfer_steps="1"
       flexible="false"
       use_knot_distance="true"
       apply_no_radius="true"
       apply_with_radius="true"
       only_selected="false"
       hide_knots="false" /><linearGradient
       id="linearGradient57"
       inkscape:collect="always"><stop
         style="stop-color:#ff6368;stop-opacity:1;"
         offset="0"
         id="stop56" /><stop
         style="stop-color:#a82e44;stop-opacity:1;"
         offset="1"
         id="stop57" /></linearGradient><inkscape:path-effect
       effect="fillet_chamfer"
       id="path-effect49"
       is_visible="true"
       lpeversion="1"
       nodesatellites_param="F,0,0,1,0,0,0,1 @ F,0,1,1,0,17.693809,0,1 @ F,0,0,1,0,17.693809,0,1 @ F,0,0,1,0,0,0,1"
       radius="0"
       unit="px"
       method="auto"
       mode="F"
       chamfer_steps="1"
       flexible="false"
       use_knot_distance="true"
       apply_no_radius="true"
       apply_with_radius="true"
       only_selected="false"
       hide_knots="false" /><linearGradient
       id="linearGradient39"
       inkscape:collect="always"><stop
         style="stop-color:#55acee;stop-opacity:1;"
         offset="0"
         id="stop38" /><stop
         style="stop-color:#226699;stop-opacity:1;"
         offset="1"
         id="stop39" /></linearGradient><linearGradient
       id="linearGradient37"
       inkscape:collect="always"><stop
         style="stop-color:#226699;stop-opacity:1;"
         offset="0"
         id="stop36" /><stop
         style="stop-color:#55acee;stop-opacity:1;"
         offset="1"
         id="stop37" /></linearGradient><inkscape:path-effect
       effect="fillet_chamfer"
       id="path-effect36"
       is_visible="true"
       lpeversion="1"
       nodesatellites_param="F,0,0,1,0,0,0,1 @ F,0,1,1,0,17.693809,0,1 @ F,0,0,1,0,17.693809,0,1 @ F,0,0,1,0,0,0,1 @ F,0,0,1,0,0,0,1"
       radius="0"
       unit="px"
       method="auto"
       mode="F"
       chamfer_steps="1"
       flexible="false"
       use_knot_distance="true"
       apply_no_radius="true"
       apply_with_radius="true"
       only_selected="false"
       hide_knots="false" /><linearGradient
       id="linearGradient34"
       inkscape:collect="always"><stop
         style="stop-color:#ffe999;stop-opacity:1;"
         offset="0"
         id="stop34" /><stop
         style="stop-color:#f4900c;stop-opacity:1;"
         offset="1"
         id="stop35" /></linearGradient><linearGradient
       id="linearGradient14"
       inkscape:collect="always"><stop
         style="stop-color:#ffffff;stop-opacity:1;"
         offset="0.28961089"
         id="stop19" /><stop
         style="stop-color:#ccd6dd;stop-opacity:1;"
         offset="0.29961088"
         id="stop17" /><stop
         style="stop-color:#ccd6dd;stop-opacity:1;"
         offset="0.5"
         id="stop16" /><stop
         style="stop-color:#ccd6dd;stop-opacity:1;"
         offset="0.69999999"
         id="stop18" /><stop
         style="stop-color:#ffffff;stop-opacity:1;"
         offset="0.70999998"
         id="stop20" /></linearGradient><linearGradient
       id="swatch14"
       inkscape:swatch="solid"><stop
         style="stop-color:#f5f8fa;stop-opacity:1;"
         offset="0"
         id="stop14" /></linearGradient><linearGradient
       id="linearGradient7"
       inkscape:collect="always"><stop
         style="stop-color:#226699;stop-opacity:1;"
         offset="0"
         id="stop7" /><stop
         style="stop-color:#ccd6dd;stop-opacity:1;"
         offset="1"
         id="stop8" /></linearGradient><linearGradient
       id="linearGradient5"
       inkscape:collect="always"><stop
         style="stop-color:#b4e0ff;stop-opacity:1;"
         offset="0"
         id="stop5" /><stop
         style="stop-color:#3b88c3;stop-opacity:1;"
         offset="1"
         id="stop6" /></linearGradient><inkscape:path-effect
       effect="fillet_chamfer"
       id="path-effect4"
       is_visible="true"
       lpeversion="1"
       nodesatellites_param="F,0,0,1,0,32.46008,0,1 @ F,0,0,1,0,0,0,1 @ F,0,0,1,0,0,0,1 @ F,0,1,1,0,32.46008,0,1"
       radius="0"
       unit="px"
       method="auto"
       mode="F"
       chamfer_steps="1"
       flexible="false"
       use_knot_distance="true"
       apply_no_radius="true"
       apply_with_radius="true"
       only_selected="false"
       hide_knots="false" /><filter
       inkscape:collect="always"
       style="color-interpolation-filters:sRGB"
       id="filter50"
       x="-0.69438011"
       y="-0.19133142"
       width="2.3887602"
       height="1.3826628"><feGaussianBlur
         inkscape:collect="always"
         stdDeviation="5.0813064"
         id="feGaussianBlur50" /></filter><linearGradient
       inkscape:collect="always"
       xlink:href="#linearGradient5"
       id="linearGradient128"
       gradientUnits="userSpaceOnUse"
       gradientTransform="matrix(0.76189262,0,0,0.76189262,-406.5685,25.529176)"
       x1="199.50935"
       y1="123.30174"
       x2="199.50935"
       y2="388.69836" /><linearGradient
       inkscape:collect="always"
       xlink:href="#linearGradient7"
       id="linearGradient129"
       gradientUnits="userSpaceOnUse"
       gradientTransform="translate(-462.69037,-9.574667)"
       x1="179.56367"
       y1="340.77386"
       x2="179.56367"
       y2="119.5228" /><linearGradient
       inkscape:collect="always"
       xlink:href="#linearGradient14"
       id="linearGradient130"
       gradientUnits="userSpaceOnUse"
       gradientTransform="matrix(0.798352,0,0,1.0250934,50.185675,-7.61977)"
       x1="239.48616"
       y1="270.36203"
       x2="272.51346"
       y2="270.36203"
       spreadMethod="repeat" /><linearGradient
       inkscape:collect="always"
       xlink:href="#linearGradient34"
       id="linearGradient131"
       gradientUnits="userSpaceOnUse"
       gradientTransform="matrix(0.87369377,0,0,0.87369377,56.404926,7.543411)"
       x1="226.80585"
       y1="60.937061"
       x2="226.80585"
       y2="119.15361" /><linearGradient
       inkscape:collect="always"
       xlink:href="#linearGradient37"
       id="linearGradient132"
       gradientUnits="userSpaceOnUse"
       x1="-166.03137"
       y1="256"
       x2="-141.96875"
       y2="256" /><linearGradient
       inkscape:collect="always"
       xlink:href="#linearGradient39"
       id="linearGradient133"
       gradientUnits="userSpaceOnUse"
       gradientTransform="matrix(0.79748267,0,0,0.59995546,-461.63763,102.41138)"
       x1="396.57687"
       y1="263.70465"
       x2="374.74969"
       y2="263.70465" /><radialGradient
       inkscape:collect="always"
       xlink:href="#linearGradient57"
       id="radialGradient133"
       gradientUnits="userSpaceOnUse"
       gradientTransform="matrix(2.1986768,0,0,2.8672398,-698.77193,-492.63685)"
       cx="377.63644"
       cy="243.446"
       fx="377.63644"
       fy="243.446"
       r="11.010886"
       spreadMethod="pad" /><linearGradient
       inkscape:collect="always"
       xlink:href="#linearGradient57"
       id="linearGradient134"
       gradientUnits="userSpaceOnUse"
       gradientTransform="matrix(0.76376783,0,0,0.77772214,-163.10323,21.290846)"
       x1="385.76083"
       y1="203.52922"
       x2="385.76083"
       y2="308.47076" /><radialGradient
       inkscape:collect="always"
       xlink:href="#linearGradient57"
       id="radialGradient134"
       gradientUnits="userSpaceOnUse"
       gradientTransform="matrix(2.1986768,0,0,2.8672398,-452.70174,-492.63685)"
       cx="377.63644"
       cy="243.446"
       fx="377.63644"
       fy="243.446"
       r="11.010886"
       spreadMethod="pad" /><linearGradient
       inkscape:collect="always"
       xlink:href="#linearGradient57"
       id="linearGradient135"
       gradientUnits="userSpaceOnUse"
       gradientTransform="matrix(0.76376783,0,0,0.77772214,82.96696,21.290851)"
       x1="385.76083"
       y1="203.52922"
       x2="385.76083"
       y2="308.47076" /><filter
       style="color-interpolation-filters:sRGB;"
       inkscape:label="Color Shift"
       id="filter188"
       x="-0.015215573"
       y="-0.019165029"
       width="1.0304311"
       height="1.0556692"><feColorMatrix
         type="hueRotate"
         values="310"
         result="color1"
         id="feColorMatrix187" /><feColorMatrix
         type="saturate"
         values="1"
         result="color2"
         id="feColorMatrix188" /></filter><linearGradient
       inkscape:collect="always"
       xlink:href="#linearGradient5"
       id="linearGradient42"
       gradientUnits="userSpaceOnUse"
       gradientTransform="matrix(0.76189262,0,0,0.76189262,-406.5685,25.529176)"
       x1="199.50935"
       y1="123.30174"
       x2="199.50935"
       y2="388.69836" /><linearGradient
       inkscape:collect="always"
       xlink:href="#linearGradient7"
       id="linearGradient43"
       gradientUnits="userSpaceOnUse"
       gradientTransform="translate(-462.69037,-9.574667)"
       x1="179.56367"
       y1="340.77386"
       x2="179.56367"
       y2="119.5228" /><linearGradient
       inkscape:collect="always"
       xlink:href="#linearGradient14"
       id="linearGradient44"
       gradientUnits="userSpaceOnUse"
       gradientTransform="matrix(0.798352,0,0,1.0250934,50.185675,-7.61977)"
       x1="239.48616"
       y1="270.36203"
       x2="272.51346"
       y2="270.36203"
       spreadMethod="repeat" /><linearGradient
       inkscape:collect="always"
       xlink:href="#linearGradient34"
       id="linearGradient45"
       gradientUnits="userSpaceOnUse"
       gradientTransform="matrix(0.87369377,0,0,0.87369377,56.404926,7.543411)"
       x1="226.80585"
       y1="60.937061"
       x2="226.80585"
       y2="119.15361" /><linearGradient
       inkscape:collect="always"
       xlink:href="#linearGradient37"
       id="linearGradient46"
       gradientUnits="userSpaceOnUse"
       x1="-166.03137"
       y1="256"
       x2="-141.96875"
       y2="256" /><linearGradient
       inkscape:collect="always"
       xlink:href="#linearGradient39"
       id="linearGradient47"
       gradientUnits="userSpaceOnUse"
       gradientTransform="matrix(0.79748267,0,0,0.59995546,-461.63763,102.41138)"
       x1="396.57687"
       y1="263.70465"
       x2="374.74969"
       y2="263.70465" /><radialGradient
       inkscape:collect="always"
       xlink:href="#linearGradient57"
       id="radialGradient47"
       gradientUnits="userSpaceOnUse"
       gradientTransform="matrix(2.1986768,0,0,2.8672398,-698.77193,-492.63685)"
       cx="377.63644"
       cy="243.446"
       fx="377.63644"
       fy="243.446"
       r="11.010886"
       spreadMethod="pad" /><linearGradient
       inkscape:collect="always"
       xlink:href="#linearGradient57"
       id="linearGradient48"
       gradientUnits="userSpaceOnUse"
       gradientTransform="matrix(0.76376783,0,0,0.77772214,-163.10323,21.290846)"
       x1="385.76083"
       y1="203.52922"
       x2="385.76083"
       y2="308.47076" /><radialGradient
       inkscape:collect="always"
       xlink:href="#linearGradient57"
       id="radialGradient48"
       gradientUnits="userSpaceOnUse"
       gradientTransform="matrix(2.1986768,0,0,2.8672398,-452.70174,-492.63685)"
       cx="377.63644"
       cy="243.446"
       fx="377.63644"
       fy="243.446"
       r="11.010886"
       spreadMethod="pad" /><linearGradient
       inkscape:collect="always"
       xlink:href="#linearGradient57"
       id="linearGradient49"
       gradientUnits="userSpaceOnUse"
       gradientTransform="matrix(0.76376783,0,0,0.77772214,82.96696,21.290851)"
       x1="385.76083"
       y1="203.52922"
       x2="385.76083"
       y2="308.47076" /><linearGradient
       inkscape:collect="always"
       xlink:href="#linearGradient5"
       id="linearGradient50"
       gradientUnits="userSpaceOnUse"
       gradientTransform="matrix(0.76189262,0,0,0.76189262,-406.5685,25.529176)"
       x1="199.50935"
       y1="123.30174"
       x2="199.50935"
       y2="388.69836" /><linearGradient
       inkscape:collect="always"
       xlink:href="#linearGradient7"
       id="linearGradient51"
       gradientUnits="userSpaceOnUse"
       gradientTransform="translate(-462.69037,-9.574667)"
       x1="179.56367"
       y1="340.77386"
       x2="179.56367"
       y2="119.5228" /><linearGradient
       inkscape:collect="always"
       xlink:href="#linearGradient14"
       id="linearGradient52"
       gradientUnits="userSpaceOnUse"
       gradientTransform="matrix(0.798352,0,0,1.0250934,50.185675,-7.61977)"
       x1="239.48616"
       y1="270.36203"
       x2="272.51346"
       y2="270.36203"
       spreadMethod="repeat" /><linearGradient
       inkscape:collect="always"
       xlink:href="#linearGradient34"
       id="linearGradient53"
       gradientUnits="userSpaceOnUse"
       gradientTransform="matrix(0.87369377,0,0,0.87369377,56.404926,7.543411)"
       x1="226.80585"
       y1="60.937061"
       x2="226.80585"
       y2="119.15361" /><linearGradient
       inkscape:collect="always"
       xlink:href="#linearGradient37"
       id="linearGradient54"
       gradientUnits="userSpaceOnUse"
       x1="-166.03137"
       y1="256"
       x2="-141.96875"
       y2="256" /><linearGradient
       inkscape:collect="always"
       xlink:href="#linearGradient39"
       id="linearGradient55"
       gradientUnits="userSpaceOnUse"
       gradientTransform="matrix(0.79748267,0,0,0.59995546,-461.63763,102.41138)"
       x1="396.57687"
       y1="263.70465"
       x2="374.74969"
       y2="263.70465" /><radialGradient
       inkscape:collect="always"
       xlink:href="#linearGradient57"
       id="radialGradient55"
       gradientUnits="userSpaceOnUse"
       gradientTransform="matrix(2.1986768,0,0,2.8672398,-698.77193,-492.63685)"
       cx="377.63644"
       cy="243.446"
       fx="377.63644"
       fy="243.446"
       r="11.010886"
       spreadMethod="pad" /><linearGradient
       inkscape:collect="always"
       xlink:href="#linearGradient57"
       id="linearGradient56"
       gradientUnits="userSpaceOnUse"
       gradientTransform="matrix(0.76376783,0,0,0.77772214,-163.10323,21.290846)"
       x1="385.76083"
       y1="203.52922"
       x2="385.76083"
       y2="308.47076" /><radialGradient
       inkscape:collect="always"
       xlink:href="#linearGradient57"
       id="radialGradient56"
       gradientUnits="userSpaceOnUse"
       gradientTransform="matrix(2.1986768,0,0,2.8672398,-452.70174,-492.63685)"
       cx="377.63644"
       cy="243.446"
       fx="377.63644"
       fy="243.446"
       r="11.010886"
       spreadMethod="pad" /><linearGradient
       inkscape:collect="always"
       xlink:href="#linearGradient57"
       id="linearGradient58"
       gradientUnits="userSpaceOnUse"
       gradientTransform="matrix(0.76376783,0,0,0.77772214,82.96696,21.290851)"
       x1="385.76083"
       y1="203.52922"
       x2="385.76083"
       y2="308.47076" /></defs><g
     inkscape:label="Layer 1"
     inkscape:groupmode="layer"
     id="layer1"><g
       id="g125"
       transform="matrix(1.6072611,0,0,1.6072611,-153.14986,-54.991274)"><rect
         style="fill:url(#linearGradient128);stroke:url(#linearGradient129);stroke-width:19.0473;stroke-linecap:round;stroke-linejoin:round;paint-order:stroke markers fill"
         id="rect110"
         width="202.20378"
         height="202.20378"
         x="-355.66568"
         y="119.47177"
         rx="44.502483"
         ry="44.502483"
         transform="scale(-1,1)" /><rect
         style="fill:none;fill-opacity:1;stroke:#67a8d9;stroke-width:15;stroke-linecap:round;stroke-linejoin:round;stroke-dasharray:none;stroke-opacity:1;paint-order:stroke markers fill"
         id="rect111"
         width="114.65952"
         height="29.444834"
         x="197.23402"
         y="254.80414"
         rx="14.722417"
         ry="14.722417" /><rect
         style="fill:url(#linearGradient130);fill-opacity:1;stroke:#ccd6dd;stroke-width:6.83828;stroke-linecap:round;stroke-linejoin:round;stroke-dasharray:none;stroke-opacity:1;paint-order:stroke markers fill"
         id="rect112"
         width="114.65952"
         height="29.444834"
         x="197.23402"
         y="254.80414"
         rx="14.722417"
         ry="14.722417" /><g
         id="g122"
         transform="translate(-1.4361992,-35.426329)"><rect
           style="fill:none;fill-opacity:1;stroke:#9dcff3;stroke-width:6.5;stroke-linecap:round;stroke-linejoin:round;stroke-dasharray:none;stroke-opacity:1;paint-order:stroke fill markers"
           id="rect113"
           width="65.298218"
           height="65.298973"
           x="176.52644"
           y="195.6911"
           ry="32.649109"
           rx="32.649109" /><g
           id="g116"
           transform="matrix(0.4630398,0,0,0.4630398,17.110963,197.91524)"><path
             id="path113"
             style="fill:#286a9b;fill-opacity:1;stroke:#356fb1;stroke-width:9.60667;stroke-linecap:round;stroke-linejoin:round;stroke-dasharray:none;stroke-opacity:1;paint-order:stroke fill markers"
             d="m 349.08363,65.707851 c 0,36.400859 29.307,65.707849 65.70785,65.707849 36.40082,0 65.70623,-29.30699 65.70623,-65.707849 h -10.76327 c 0,30.438045 -24.50493,54.944579 -54.94296,54.944579 -30.43804,0 -54.94457,-24.506534 -54.94457,-54.944579 z" /><path
             id="path114"
             style="fill:#418cc6;fill-opacity:1;stroke:#356fb1;stroke-width:9.60667;stroke-linecap:round;stroke-linejoin:round;stroke-dasharray:none;stroke-opacity:1;paint-order:stroke fill markers"
             d="m 414.79148,0 c -36.40085,0 -65.70785,29.307007 -65.70785,65.707851 h 10.76328 c 0,-30.438039 24.50653,-54.944576 54.94457,-54.944576 30.43803,0 54.94296,24.506537 54.94296,54.944576 h 10.76327 C 480.49771,29.307007 451.1923,0 414.79148,0 Z" /><path
             id="path115"
             style="fill:#ffffff;fill-opacity:1;stroke:none;stroke-width:7.55906;stroke-linecap:round;stroke-linejoin:round;stroke-dasharray:none;stroke-opacity:1;paint-order:stroke markers fill"
             d="m 414.79169,14.002662 c -28.64363,0 -51.70508,23.061452 -51.70508,51.705078 h 103.4082 c 0,-28.643626 -23.0595,-51.705078 -51.70312,-51.705078 z" /><path
             id="path116"
             style="fill:#ccd6dd;fill-opacity:1;stroke:none;stroke-width:7.55906;stroke-linecap:round;stroke-linejoin:round;stroke-dasharray:none;stroke-opacity:1;paint-order:stroke markers fill"
             d="m 414.79169,117.41282 c -28.64363,0 -51.70508,-23.061444 -51.70508,-51.70508 h 103.4082 c 0,28.643636 -23.0595,51.70508 -51.70312,51.70508 z" /></g><g
           id="g121"><rect
             style="fill:none;fill-opacity:1;stroke:#9dcff3;stroke-width:6.5;stroke-linecap:round;stroke-linejoin:round;stroke-dasharray:none;stroke-opacity:1;paint-order:stroke fill markers"
             id="rect116"
             width="65.298218"
             height="65.298973"
             x="270.17532"
             y="195.6911"
             ry="32.649109"
             rx="32.649109" /><g
             id="g120"
             transform="matrix(-0.4630398,0,0,0.4630398,494.88903,197.91524)"><path
               id="path117"
               style="fill:#286a9b;fill-opacity:1;stroke:#356fb1;stroke-width:9.60667;stroke-linecap:round;stroke-linejoin:round;stroke-dasharray:none;stroke-opacity:1;paint-order:stroke fill markers"
               d="m 349.08363,65.707851 c 0,36.400859 29.307,65.707849 65.70785,65.707849 36.40082,0 65.70623,-29.30699 65.70623,-65.707849 h -10.76327 c 0,30.438045 -24.50493,54.944579 -54.94296,54.944579 -30.43804,0 -54.94457,-24.506534 -54.94457,-54.944579 z" /><path
               id="path118"
               style="fill:#418cc6;fill-opacity:1;stroke:#356fb1;stroke-width:9.60667;stroke-linecap:round;stroke-linejoin:round;stroke-dasharray:none;stroke-opacity:1;paint-order:stroke fill markers"
               d="m 414.79148,0 c -36.40085,0 -65.70785,29.307007 -65.70785,65.707851 h 10.76328 c 0,-30.438039 24.50653,-54.944576 54.94457,-54.944576 30.43803,0 54.94296,24.506537 54.94296,54.944576 h 10.76327 C 480.49771,29.307007 451.1923,0 414.79148,0 Z" /><path
               id="path119"
               style="fill:#ffffff;fill-opacity:1;stroke:none;stroke-width:7.55906;stroke-linecap:round;stroke-linejoin:round;stroke-dasharray:none;stroke-opacity:1;paint-order:stroke markers fill"
               d="m 414.79169,14.002662 c -28.64363,0 -51.70508,23.061452 -51.70508,51.705078 h 103.4082 c 0,-28.643626 -23.0595,-51.705078 -51.70312,-51.705078 z" /><path
               id="path120"
               style="fill:#ccd6dd;fill-opacity:1;stroke:none;stroke-width:7.55906;stroke-linecap:round;stroke-linejoin:round;stroke-dasharray:none;stroke-opacity:1;paint-order:stroke markers fill"
               d="m 414.79169,117.41282 c -28.64363,0 -51.70508,-23.061444 -51.70508,-51.70508 h 103.4082 c 0,28.643636 -23.0595,51.70508 -51.70312,51.70508 z" /></g></g></g><rect
         style="fill:url(#linearGradient131);stroke:#f4900c;stroke-width:10;stroke-linecap:round;stroke-linejoin:round;stroke-dasharray:none;stroke-opacity:1;paint-order:stroke fill markers"
         id="rect122"
         width="50.870632"
         height="50.863476"
         x="229.12846"
         y="60.783699"
         ry="25.431738"
         rx="25.431738" /><path
         id="path122"
         style="opacity:0.5;fill:#000000;fill-opacity:1;stroke:none;stroke-width:6.5;stroke-linecap:round;stroke-linejoin:round;stroke-dasharray:none;stroke-opacity:1;paint-order:stroke markers fill;filter:url(#filter50)"
         d="m -145.21875,224.13086 a 17.628277,17.628277 134.78661 0 0 -17.5625,17.69381 v 28.35066 a 17.628277,17.628277 45.213392 0 0 17.5625,17.69381 z"
         transform="rotate(-90,-16.431264,-14.995065)"
         inkscape:path-effect="#path-effect126"
         inkscape:original-d="m -145.21875,224.13086 h -17.5625 v 63.73828 h 17.5625 z"
         sodipodi:nodetypes="ccccc" /><path
         id="path123"
         style="fill:url(#linearGradient132);stroke:url(#linearGradient133);stroke-width:6.5;stroke-linecap:round;stroke-linejoin:round;stroke-dasharray:none;stroke-opacity:1;paint-order:stroke markers fill"
         d="m -145.21875,224.13086 a 17.628277,17.628277 134.78661 0 0 -17.5625,17.69381 v 28.35066 a 17.628277,17.628277 45.213392 0 0 17.5625,17.69381 v -35.33606 z"
         transform="rotate(-90,-18.431264,-16.995065)"
         inkscape:path-effect="#path-effect128"
         inkscape:original-d="m -145.21875,224.13086 h -17.5625 v 63.73828 h 17.5625 v -35.33606 z"
         sodipodi:nodetypes="cccccc" /><path
         id="path124"
         style="fill:url(#radialGradient133);stroke:url(#linearGradient134);stroke-width:8;stroke-linecap:round;stroke-linejoin:round;stroke-dasharray:none;stroke-opacity:1;paint-order:stroke markers fill"
         d="m 131.5293,132.57031 c -3.34547,0 -6.03907,2.6936 -6.03907,6.03907 0,2.99051 2.15178,5.45693 4.99805,5.94726 v 34.51953 h -2.83984 c -2.50946,0 -4.5293,2.01985 -4.5293,4.5293 v 73.56445 c 0,2.50946 2.01984,4.5293 4.5293,4.5293 h 7.75976 c 2.50946,0 4.5293,-2.01984 4.5293,-4.5293 v -73.56445 c 0,-2.50945 -2.01984,-4.5293 -4.5293,-4.5293 h -2.83984 v -34.51953 c 2.84627,-0.49033 4.99805,-2.95675 4.99805,-5.94726 0,-3.34547 -2.69165,-6.03907 -6.03711,-6.03907 z" /><path
         id="path125"
         style="fill:url(#radialGradient134);stroke:url(#linearGradient135);stroke-width:8;stroke-linecap:round;stroke-linejoin:round;stroke-dasharray:none;stroke-opacity:1;paint-order:stroke markers fill"
         d="m 377.59949,132.57031 c -3.34547,0 -6.03907,2.6936 -6.03907,6.03907 0,2.99051 2.15178,5.45693 4.99805,5.94726 v 34.51953 h -2.83984 c -2.50946,0 -4.5293,2.01985 -4.5293,4.5293 v 73.56445 c 0,2.50946 2.01984,4.5293 4.5293,4.5293 h 7.75976 c 2.50946,0 4.5293,-2.01984 4.5293,-4.5293 v -73.56445 c 0,-2.50945 -2.01984,-4.5293 -4.5293,-4.5293 h -2.83984 v -34.51953 c 2.84627,-0.49033 4.99805,-2.95675 4.99805,-5.94726 0,-3.34547 -2.69165,-6.03907 -6.03711,-6.03907 z" /></g><g
       id="g58"
       transform="translate(153.62239,251.09645)"><g
         id="g18"
         transform="matrix(1.0800335,0,0,1.0800335,-778.55941,-290.0737)"><rect
           style="fill:url(#linearGradient50);stroke:url(#linearGradient51);stroke-width:19.0473;stroke-linecap:round;stroke-linejoin:round;paint-order:stroke markers fill"
           id="rect1"
           width="202.20378"
           height="202.20378"
           x="-355.66568"
           y="119.47177"
           rx="44.502483"
           ry="44.502483"
           transform="scale(-1,1)" /><rect
           style="fill:none;fill-opacity:1;stroke:#65a7d8;stroke-width:15;stroke-linecap:round;stroke-linejoin:round;stroke-dasharray:none;stroke-opacity:1;paint-order:stroke markers fill"
           id="rect2"
           width="114.65952"
           height="29.444834"
           x="197.23402"
           y="254.80414"
           rx="14.722417"
           ry="14.722417" /><rect
           style="fill:url(#linearGradient52);fill-opacity:1;stroke:#ccd6dd;stroke-width:6.83828;stroke-linecap:round;stroke-linejoin:round;stroke-dasharray:none;stroke-opacity:1;paint-order:stroke markers fill"
           id="rect3"
           width="114.65952"
           height="29.444834"
           x="197.23402"
           y="254.80414"
           rx="14.722417"
           ry="14.722417" /><g
           id="g15"
           transform="translate(-1.4361992,-35.426329)"><rect
             style="fill:none;fill-opacity:1;stroke:#9dcff3;stroke-width:6.5;stroke-linecap:round;stroke-linejoin:round;stroke-dasharray:none;stroke-opacity:1;paint-order:stroke fill markers"
             id="rect5"
             width="65.298218"
             height="65.298973"
             x="176.52644"
             y="195.6911"
             ry="32.649109"
             rx="32.649109" /><g
             id="g9"
             transform="matrix(0.4630398,0,0,0.4630398,17.110963,197.91524)"><path
               id="path6"
               style="fill:#286a9b;fill-opacity:1;stroke:#356fb1;stroke-width:9.60667;stroke-linecap:round;stroke-linejoin:round;stroke-dasharray:none;stroke-opacity:1;paint-order:stroke fill markers"
               d="m 349.08363,65.707851 c 0,36.400859 29.307,65.707849 65.70785,65.707849 36.40082,0 65.70623,-29.30699 65.70623,-65.707849 h -10.76327 c 0,30.438045 -24.50493,54.944579 -54.94296,54.944579 -30.43804,0 -54.94457,-24.506534 -54.94457,-54.944579 z" /><path
               id="path7"
               style="fill:#418cc6;fill-opacity:1;stroke:#356fb1;stroke-width:9.60667;stroke-linecap:round;stroke-linejoin:round;stroke-dasharray:none;stroke-opacity:1;paint-order:stroke fill markers"
               d="m 414.79148,0 c -36.40085,0 -65.70785,29.307007 -65.70785,65.707851 h 10.76328 c 0,-30.438039 24.50653,-54.944576 54.94457,-54.944576 30.43803,0 54.94296,24.506537 54.94296,54.944576 h 10.76327 C 480.49771,29.307007 451.1923,0 414.79148,0 Z" /><path
               id="path8"
               style="fill:#ffffff;fill-opacity:1;stroke:none;stroke-width:7.55906;stroke-linecap:round;stroke-linejoin:round;stroke-dasharray:none;stroke-opacity:1;paint-order:stroke markers fill"
               d="m 414.79169,14.002662 c -28.64363,0 -51.70508,23.061452 -51.70508,51.705078 h 103.4082 c 0,-28.643626 -23.0595,-51.705078 -51.70312,-51.705078 z" /><path
               id="path9"
               style="fill:#ccd6dd;fill-opacity:1;stroke:none;stroke-width:7.55906;stroke-linecap:round;stroke-linejoin:round;stroke-dasharray:none;stroke-opacity:1;paint-order:stroke markers fill"
               d="m 414.79169,117.41282 c -28.64363,0 -51.70508,-23.061444 -51.70508,-51.70508 h 103.4082 c 0,28.643636 -23.0595,51.70508 -51.70312,51.70508 z" /></g><g
             id="g14"><rect
               style="fill:none;fill-opacity:1;stroke:#9dcff3;stroke-width:6.5;stroke-linecap:round;stroke-linejoin:round;stroke-dasharray:none;stroke-opacity:1;paint-order:stroke fill markers"
               id="rect9"
               width="65.298218"
               height="65.298973"
               x="270.17532"
               y="195.6911"
               ry="32.649109"
               rx="32.649109" /><g
               id="g13"
               transform="matrix(-0.4630398,0,0,0.4630398,494.88903,197.91524)"><path
                 id="path10"
                 style="fill:#286a9b;fill-opacity:1;stroke:#356fb1;stroke-width:9.60667;stroke-linecap:round;stroke-linejoin:round;stroke-dasharray:none;stroke-opacity:1;paint-order:stroke fill markers"
                 d="m 349.08363,65.707851 c 0,36.400859 29.307,65.707849 65.70785,65.707849 36.40082,0 65.70623,-29.30699 65.70623,-65.707849 h -10.76327 c 0,30.438045 -24.50493,54.944579 -54.94296,54.944579 -30.43804,0 -54.94457,-24.506534 -54.94457,-54.944579 z" /><path
                 id="path11"
                 style="fill:#418cc6;fill-opacity:1;stroke:#356fb1;stroke-width:9.60667;stroke-linecap:round;stroke-linejoin:round;stroke-dasharray:none;stroke-opacity:1;paint-order:stroke fill markers"
                 d="m 414.79148,0 c -36.40085,0 -65.70785,29.307007 -65.70785,65.707851 h 10.76328 c 0,-30.438039 24.50653,-54.944576 54.94457,-54.944576 30.43803,0 54.94296,24.506537 54.94296,54.944576 h 10.76327 C 480.49771,29.307007 451.1923,0 414.79148,0 Z" /><path
                 id="path12"
                 style="fill:#ffffff;fill-opacity:1;stroke:none;stroke-width:7.55906;stroke-linecap:round;stroke-linejoin:round;stroke-dasharray:none;stroke-opacity:1;paint-order:stroke markers fill"
                 d="m 414.79169,14.002662 c -28.64363,0 -51.70508,23.061452 -51.70508,51.705078 h 103.4082 c 0,-28.643626 -23.0595,-51.705078 -51.70312,-51.705078 z" /><path
                 id="path13"
                 style="fill:#ccd6dd;fill-opacity:1;stroke:none;stroke-width:7.55906;stroke-linecap:round;stroke-linejoin:round;stroke-dasharray:none;stroke-opacity:1;paint-order:stroke markers fill"
                 d="m 414.79169,117.41282 c -28.64363,0 -51.70508,-23.061444 -51.70508,-51.70508 h 103.4082 c 0,28.643636 -23.0595,51.70508 -51.70312,51.70508 z" /></g></g></g><rect
           style="fill:url(#linearGradient53);stroke:#f4900c;stroke-width:10;stroke-linecap:round;stroke-linejoin:round;stroke-dasharray:none;stroke-opacity:1;paint-order:stroke fill markers"
           id="rect15"
           width="50.870632"
           height="50.863476"
           x="229.12846"
           y="60.783699"
           ry="25.431738"
           rx="25.431738" /><path
           id="path15"
           style="opacity:0.5;fill:#000000;fill-opacity:1;stroke:none;stroke-width:6.5;stroke-linecap:round;stroke-linejoin:round;stroke-dasharray:none;stroke-opacity:1;paint-order:stroke markers fill;filter:url(#filter50)"
           d="m -145.21875,224.13086 a 17.628277,17.628277 134.78661 0 0 -17.5625,17.69381 v 28.35066 a 17.628277,17.628277 45.213392 0 0 17.5625,17.69381 z"
           transform="rotate(-90,-16.431264,-14.995065)"
           inkscape:path-effect="#path-effect35"
           inkscape:original-d="m -145.21875,224.13086 h -17.5625 v 63.73828 h 17.5625 z"
           sodipodi:nodetypes="ccccc" /><path
           id="path16"
           style="fill:url(#linearGradient54);stroke:url(#linearGradient55);stroke-width:6.5;stroke-linecap:round;stroke-linejoin:round;stroke-dasharray:none;stroke-opacity:1;paint-order:stroke markers fill"
           d="m -145.21875,224.13086 a 17.628277,17.628277 134.78661 0 0 -17.5625,17.69381 v 28.35066 a 17.628277,17.628277 45.213392 0 0 17.5625,17.69381 v -35.33606 z"
           transform="rotate(-90,-18.431264,-16.995065)"
           inkscape:path-effect="#path-effect38"
           inkscape:original-d="m -145.21875,224.13086 h -17.5625 v 63.73828 h 17.5625 v -35.33606 z"
           sodipodi:nodetypes="cccccc" /><path
           id="path17"
           style="fill:url(#radialGradient55);stroke:url(#linearGradient56);stroke-width:8;stroke-linecap:round;stroke-linejoin:round;stroke-dasharray:none;stroke-opacity:1;paint-order:stroke markers fill"
           d="m 131.5293,132.57031 c -3.34547,0 -6.03907,2.6936 -6.03907,6.03907 0,2.99051 2.15178,5.45693 4.99805,5.94726 v 34.51953 h -2.83984 c -2.50946,0 -4.5293,2.01985 -4.5293,4.5293 v 73.56445 c 0,2.50946 2.01984,4.5293 4.5293,4.5293 h 7.75976 c 2.50946,0 4.5293,-2.01984 4.5293,-4.5293 v -73.56445 c 0,-2.50945 -2.01984,-4.5293 -4.5293,-4.5293 h -2.83984 v -34.51953 c 2.84627,-0.49033 4.99805,-2.95675 4.99805,-5.94726 0,-3.34547 -2.69165,-6.03907 -6.03711,-6.03907 z" /><path
           id="path18"
           style="fill:url(#radialGradient56);stroke:url(#linearGradient58);stroke-width:8;stroke-linecap:round;stroke-linejoin:round;stroke-dasharray:none;stroke-opacity:1;paint-order:stroke markers fill"
           d="m 377.59949,132.57031 c -3.34547,0 -6.03907,2.6936 -6.03907,6.03907 0,2.99051 2.15178,5.45693 4.99805,5.94726 v 34.51953 h -2.83984 c -2.50946,0 -4.5293,2.01985 -4.5293,4.5293 v 73.56445 c 0,2.50946 2.01984,4.5293 4.5293,4.5293 h 7.75976 c 2.50946,0 4.5293,-2.01984 4.5293,-4.5293 v -73.56445 c 0,-2.50945 -2.01984,-4.5293 -4.5293,-4.5293 h -2.83984 v -34.51953 c 2.84627,-0.49033 4.99805,-2.95675 4.99805,-5.94726 0,-3.34547 -2.69165,-6.03907 -6.03711,-6.03907 z" /></g><g
         id="g33"
         transform="matrix(1.0800335,0,0,1.0800335,-590.55941,-118.07369)"
         style="filter:url(#filter188)"><rect
           style="fill:url(#linearGradient42);stroke:url(#linearGradient43);stroke-width:19.0473;stroke-linecap:round;stroke-linejoin:round;paint-order:stroke markers fill"
           id="rect18"
           width="202.20378"
           height="202.20378"
           x="-355.66568"
           y="119.47177"
           rx="44.502483"
           ry="44.502483"
           transform="scale(-1,1)" /><rect
           style="fill:none;fill-opacity:1;stroke:#65a7d8;stroke-width:15;stroke-linecap:round;stroke-linejoin:round;stroke-dasharray:none;stroke-opacity:1;paint-order:stroke markers fill"
           id="rect19"
           width="114.65952"
           height="29.444834"
           x="197.23402"
           y="254.80414"
           rx="14.722417"
           ry="14.722417" /><rect
           style="fill:url(#linearGradient44);fill-opacity:1;stroke:#ccd6dd;stroke-width:6.83828;stroke-linecap:round;stroke-linejoin:round;stroke-dasharray:none;stroke-opacity:1;paint-order:stroke markers fill"
           id="rect20"
           width="114.65952"
           height="29.444834"
           x="197.23402"
           y="254.80414"
           rx="14.722417"
           ry="14.722417" /><g
           id="g30"
           transform="translate(-1.4361992,-35.426329)"><rect
             style="fill:none;fill-opacity:1;stroke:#9dcff3;stroke-width:6.5;stroke-linecap:round;stroke-linejoin:round;stroke-dasharray:none;stroke-opacity:1;paint-order:stroke fill markers"
             id="rect21"
             width="65.298218"
             height="65.298973"
             x="176.52644"
             y="195.6911"
             ry="32.649109"
             rx="32.649109" /><g
             id="g24"
             transform="matrix(0.4630398,0,0,0.4630398,17.110963,197.91524)"><path
               id="path21"
               style="fill:#286a9b;fill-opacity:1;stroke:#356fb1;stroke-width:9.60667;stroke-linecap:round;stroke-linejoin:round;stroke-dasharray:none;stroke-opacity:1;paint-order:stroke fill markers"
               d="m 349.08363,65.707851 c 0,36.400859 29.307,65.707849 65.70785,65.707849 36.40082,0 65.70623,-29.30699 65.70623,-65.707849 h -10.76327 c 0,30.438045 -24.50493,54.944579 -54.94296,54.944579 -30.43804,0 -54.94457,-24.506534 -54.94457,-54.944579 z" /><path
               id="path22"
               style="fill:#418cc6;fill-opacity:1;stroke:#356fb1;stroke-width:9.60667;stroke-linecap:round;stroke-linejoin:round;stroke-dasharray:none;stroke-opacity:1;paint-order:stroke fill markers"
               d="m 414.79148,0 c -36.40085,0 -65.70785,29.307007 -65.70785,65.707851 h 10.76328 c 0,-30.438039 24.50653,-54.944576 54.94457,-54.944576 30.43803,0 54.94296,24.506537 54.94296,54.944576 h 10.76327 C 480.49771,29.307007 451.1923,0 414.79148,0 Z" /><path
               id="path23"
               style="fill:#ffffff;fill-opacity:1;stroke:none;stroke-width:7.55906;stroke-linecap:round;stroke-linejoin:round;stroke-dasharray:none;stroke-opacity:1;paint-order:stroke markers fill"
               d="m 414.79169,14.002662 c -28.64363,0 -51.70508,23.061452 -51.70508,51.705078 h 103.4082 c 0,-28.643626 -23.0595,-51.705078 -51.70312,-51.705078 z" /><path
               id="path24"
               style="fill:#ccd6dd;fill-opacity:1;stroke:none;stroke-width:7.55906;stroke-linecap:round;stroke-linejoin:round;stroke-dasharray:none;stroke-opacity:1;paint-order:stroke markers fill"
               d="m 414.79169,117.41282 c -28.64363,0 -51.70508,-23.061444 -51.70508,-51.70508 h 103.4082 c 0,28.643636 -23.0595,51.70508 -51.70312,51.70508 z" /></g><g
             id="g29"><rect
               style="fill:none;fill-opacity:1;stroke:#9dcff3;stroke-width:6.5;stroke-linecap:round;stroke-linejoin:round;stroke-dasharray:none;stroke-opacity:1;paint-order:stroke fill markers"
               id="rect24"
               width="65.298218"
               height="65.298973"
               x="270.17532"
               y="195.6911"
               ry="32.649109"
               rx="32.649109" /><g
               id="g28"
               transform="matrix(-0.4630398,0,0,0.4630398,494.88903,197.91524)"><path
                 id="path25"
                 style="fill:#286a9b;fill-opacity:1;stroke:#356fb1;stroke-width:9.60667;stroke-linecap:round;stroke-linejoin:round;stroke-dasharray:none;stroke-opacity:1;paint-order:stroke fill markers"
                 d="m 349.08363,65.707851 c 0,36.400859 29.307,65.707849 65.70785,65.707849 36.40082,0 65.70623,-29.30699 65.70623,-65.707849 h -10.76327 c 0,30.438045 -24.50493,54.944579 -54.94296,54.944579 -30.43804,0 -54.94457,-24.506534 -54.94457,-54.944579 z" /><path
                 id="path26"
                 style="fill:#418cc6;fill-opacity:1;stroke:#356fb1;stroke-width:9.60667;stroke-linecap:round;stroke-linejoin:round;stroke-dasharray:none;stroke-opacity:1;paint-order:stroke fill markers"
                 d="m 414.79148,0 c -36.40085,0 -65.70785,29.307007 -65.70785,65.707851 h 10.76328 c 0,-30.438039 24.50653,-54.944576 54.94457,-54.944576 30.43803,0 54.94296,24.506537 54.94296,54.944576 h 10.76327 C 480.49771,29.307007 451.1923,0 414.79148,0 Z" /><path
                 id="path27"
                 style="fill:#ffffff;fill-opacity:1;stroke:none;stroke-width:7.55906;stroke-linecap:round;stroke-linejoin:round;stroke-dasharray:none;stroke-opacity:1;paint-order:stroke markers fill"
                 d="m 414.79169,14.002662 c -28.64363,0 -51.70508,23.061452 -51.70508,51.705078 h 103.4082 c 0,-28.643626 -23.0595,-51.705078 -51.70312,-51.705078 z" /><path
                 id="path28"
                 style="fill:#ccd6dd;fill-opacity:1;stroke:none;stroke-width:7.55906;stroke-linecap:round;stroke-linejoin:round;stroke-dasharray:none;stroke-opacity:1;paint-order:stroke markers fill"
                 d="m 414.79169,117.41282 c -28.64363,0 -51.70508,-23.061444 -51.70508,-51.70508 h 103.4082 c 0,28.643636 -23.0595,51.70508 -51.70312,51.70508 z" /></g></g></g><rect
           style="fill:url(#linearGradient45);stroke:#f4900c;stroke-width:10;stroke-linecap:round;stroke-linejoin:round;stroke-dasharray:none;stroke-opacity:1;paint-order:stroke fill markers"
           id="rect30"
           width="50.870632"
           height="50.863476"
           x="229.12846"
           y="60.783699"
           ry="25.431738"
           rx="25.431738" /><path
           id="path30"
           style="opacity:0.5;fill:#000000;fill-opacity:1;stroke:none;stroke-width:6.5;stroke-linecap:round;stroke-linejoin:round;stroke-dasharray:none;stroke-opacity:1;paint-order:stroke markers fill;filter:url(#filter50)"
           d="m -145.21875,224.13086 a 17.628277,17.628277 134.78661 0 0 -17.5625,17.69381 v 28.35066 a 17.628277,17.628277 45.213392 0 0 17.5625,17.69381 z"
           transform="rotate(-90,-16.431264,-14.995065)"
           sodipodi:nodetypes="ccccc"
           inkscape:original-d="m -145.21875,224.13086 h -17.5625 v 63.73828 h 17.5625 z"
           inkscape:path-effect="#path-effect40" /><path
           id="path31"
           style="fill:url(#linearGradient46);stroke:url(#linearGradient47);stroke-width:6.5;stroke-linecap:round;stroke-linejoin:round;stroke-dasharray:none;stroke-opacity:1;paint-order:stroke markers fill"
           d="m -145.21875,224.13086 a 17.628277,17.628277 134.78661 0 0 -17.5625,17.69381 v 28.35066 a 17.628277,17.628277 45.213392 0 0 17.5625,17.69381 v -35.33606 z"
           transform="rotate(-90,-18.431264,-16.995065)"
           sodipodi:nodetypes="cccccc"
           inkscape:original-d="m -145.21875,224.13086 h -17.5625 v 63.73828 h 17.5625 v -35.33606 z"
           inkscape:path-effect="#path-effect42" /><path
           id="path32"
           style="fill:url(#radialGradient47);stroke:url(#linearGradient48);stroke-width:8;stroke-linecap:round;stroke-linejoin:round;stroke-dasharray:none;stroke-opacity:1;paint-order:stroke markers fill"
           d="m 131.5293,132.57031 c -3.34547,0 -6.03907,2.6936 -6.03907,6.03907 0,2.99051 2.15178,5.45693 4.99805,5.94726 v 34.51953 h -2.83984 c -2.50946,0 -4.5293,2.01985 -4.5293,4.5293 v 73.56445 c 0,2.50946 2.01984,4.5293 4.5293,4.5293 h 7.75976 c 2.50946,0 4.5293,-2.01984 4.5293,-4.5293 v -73.56445 c 0,-2.50945 -2.01984,-4.5293 -4.5293,-4.5293 h -2.83984 v -34.51953 c 2.84627,-0.49033 4.99805,-2.95675 4.99805,-5.94726 0,-3.34547 -2.69165,-6.03907 -6.03711,-6.03907 z" /><path
           id="path33"
           style="fill:url(#radialGradient48);stroke:url(#linearGradient49);stroke-width:8;stroke-linecap:round;stroke-linejoin:round;stroke-dasharray:none;stroke-opacity:1;paint-order:stroke markers fill"
           d="m 377.59949,132.57031 c -3.34547,0 -6.03907,2.6936 -6.03907,6.03907 0,2.99051 2.15178,5.45693 4.99805,5.94726 v 34.51953 h -2.83984 c -2.50946,0 -4.5293,2.01985 -4.5293,4.5293 v 73.56445 c 0,2.50946 2.01984,4.5293 4.5293,4.5293 h 7.75976 c 2.50946,0 4.5293,-2.01984 4.5293,-4.5293 v -73.56445 c 0,-2.50945 -2.01984,-4.5293 -4.5293,-4.5293 h -2.83984 v -34.51953 c 2.84627,-0.49033 4.99805,-2.95675 4.99805,-5.94726 0,-3.34547 -2.69165,-6.03907 -6.03711,-6.03907 z" /></g><path
         id="path34"
         style="opacity:1;fill:#3a9be8;fill-opacity:1;stroke:#2c6fa8;stroke-width:15;stroke-linejoin:round;stroke-dasharray:none;stroke-opacity:1;paint-order:stroke fill markers"
         d="m -524.56577,168.66943 v 28.42804 l 44.03528,-39.96383 -44.03528,-39.96382 v 28.41001 c -46.36823,0 -66.09881,-14.66711 -76.26129,-52.593999 0,40.919809 15.34724,75.493009 76.26129,75.683599 z"
         sodipodi:nodetypes="ccccccc" /></g></g></svg>
